<?xml version="1.0" standalone="no"?>
<!DOCTYPE svg PUBLIC "-//W3C//DTD SVG 20010904//EN"
 "http://www.w3.org/TR/2001/REC-SVG-20010904/DTD/svg10.dtd">
<svg version="1.0" xmlns="http://www.w3.org/2000/svg"
 width="1068.000000pt" height="1068.000000pt" viewBox="0 0 1068.000000 1068.000000"
 preserveAspectRatio="xMidYMid meet">
<metadata>
Created by potrace 1.11, written by Peter Selinger 2001-2013
</metadata>
<g transform="translate(0.000000,1068.000000) scale(0.100000,-0.100000)"
fill="#000000" stroke="none">
<path d="M8385 9202 c-26 -18 -81 -126 -91 -177 -1 -5 -9 -46 -19 -90 -9 -44
-18 -98 -20 -120 -3 -22 -8 -62 -11 -90 -4 -27 -6 -67 -6 -87 0 -28 -5 -38
-17 -39 -45 -1 -216 -16 -216 -19 0 -1 -16 -3 -35 -6 -19 -2 -56 -9 -81 -15
-26 -6 -53 -12 -60 -13 -51 -9 -134 -44 -164 -69 -53 -43 -45 -86 22 -120 49
-26 185 -69 228 -72 11 -1 36 -4 55 -8 53 -10 118 -17 189 -22 35 -3 67 -7 70
-10 6 -7 9 -25 16 -110 3 -38 8 -83 10 -100 12 -83 17 -113 27 -150 5 -22 12
-49 14 -60 8 -43 48 -131 71 -156 21 -23 37 -27 75 -20 23 4 91 164 103 241 2
14 8 50 13 80 6 30 8 58 5 63 -2 4 -1 7 4 7 4 0 8 15 9 33 1 53 12 168 16 172
2 3 35 7 73 10 227 18 387 55 482 110 42 25 46 30 46 60 0 8 -1 19 -2 25 -2
16 -71 55 -136 78 -57 19 -79 25 -150 37 -16 3 -41 7 -54 10 -33 6 -104 14
-186 21 -38 3 -72 8 -74 10 -2 2 -5 23 -6 46 -3 53 -16 176 -21 203 -3 11 -7
31 -9 45 -7 45 -16 85 -21 102 -3 9 -7 25 -9 35 -2 10 -9 32 -16 48 -7 17 -13
32 -14 35 0 3 -9 19 -18 37 -24 45 -65 65 -92 45z"/>
<path d="M5149 8845 c-2 -2 -40 -6 -84 -10 -44 -3 -91 -8 -105 -10 -14 -2 -50
-7 -80 -10 -30 -4 -62 -11 -71 -16 -9 -4 -19 -6 -21 -3 -5 4 -97 -13 -173 -32
-11 -3 -31 -7 -45 -10 -104 -20 -419 -128 -566 -194 -97 -44 -269 -133 -272
-141 -2 -5 -8 -9 -13 -9 -5 0 -39 -18 -75 -40 -36 -22 -68 -40 -70 -40 -3 0
-10 -4 -17 -10 -7 -5 -63 -46 -125 -89 -274 -194 -489 -399 -707 -676 -31 -38
-68 -88 -83 -110 -15 -22 -30 -41 -34 -43 -5 -2 -8 -10 -8 -18 0 -8 -4 -14
-10 -14 -5 0 -10 -7 -10 -15 0 -8 -4 -15 -10 -15 -5 0 -10 -7 -10 -15 0 -8 -3
-15 -8 -15 -4 0 -12 -9 -17 -19 -6 -11 -28 -50 -50 -88 -22 -37 -47 -80 -55
-95 -21 -37 -120 -238 -120 -243 0 -2 -13 -32 -29 -67 -49 -108 -153 -417
-166 -498 -3 -14 -12 -52 -20 -85 -9 -33 -18 -78 -20 -100 -3 -22 -7 -51 -10
-65 -3 -14 -8 -38 -10 -55 -2 -16 -7 -48 -10 -70 -11 -75 -20 -210 -20 -297 0
-49 -3 -88 -7 -88 -4 0 -5 -11 -2 -24 4 -24 3 -24 -28 -15 -18 6 -44 12 -58
15 -387 77 -662 242 -839 503 -88 130 -137 256 -156 402 -32 243 45 473 222
663 29 31 57 56 63 56 5 0 10 4 10 9 0 10 133 101 148 101 5 0 15 7 22 15 6 8
15 14 18 13 4 -1 23 5 42 14 57 26 143 56 181 62 20 3 42 7 50 10 36 12 116
19 244 20 129 1 140 3 150 21 5 11 28 47 51 80 114 168 108 160 156 217 10 12
18 24 18 27 0 3 10 17 23 31 12 14 33 39 46 55 44 58 147 169 233 255 l88 86
-63 26 c-85 35 -118 47 -142 51 -11 1 -26 6 -32 10 -7 5 -13 6 -13 3 0 -3 -11
-1 -24 4 -13 5 -43 12 -67 15 -24 4 -47 9 -51 11 -3 2 -28 7 -55 10 -26 3 -59
7 -73 10 -46 9 -124 13 -265 13 -161 0 -241 -5 -345 -25 -14 -2 -41 -7 -60
-10 -19 -3 -53 -10 -75 -16 -22 -6 -47 -12 -55 -13 -15 -2 -20 -4 -95 -32 -22
-8 -40 -14 -40 -13 0 1 -13 -3 -28 -9 -16 -6 -32 -11 -36 -11 -14 0 -269 -124
-320 -155 -190 -118 -337 -247 -485 -425 -42 -51 -166 -242 -166 -256 0 -6 -7
-17 -15 -24 -8 -6 -14 -15 -13 -18 1 -4 -12 -36 -28 -72 -17 -36 -35 -78 -41
-95 -6 -16 -14 -39 -19 -50 -4 -11 -8 -24 -9 -30 -2 -5 -12 -41 -23 -80 -11
-38 -23 -86 -25 -106 -2 -20 -7 -41 -10 -46 -18 -29 -30 -440 -14 -518 3 -16
8 -50 12 -75 3 -25 10 -58 15 -75 5 -16 11 -43 13 -60 6 -40 62 -202 95 -273
14 -31 26 -59 27 -62 9 -38 153 -276 211 -348 11 -13 34 -42 52 -65 46 -56
183 -197 231 -236 22 -18 52 -43 68 -57 35 -31 186 -134 244 -168 61 -35 258
-132 289 -141 14 -4 39 -13 55 -20 54 -24 229 -74 313 -90 12 -2 26 -6 30 -9
5 -3 22 -8 38 -10 16 -3 40 -8 54 -12 14 -3 34 -7 45 -9 11 -2 29 -6 40 -8 11
-3 43 -8 70 -12 28 -5 52 -9 55 -10 32 -8 72 -16 105 -20 65 -8 128 -16 165
-22 19 -3 51 -6 70 -8 19 -1 78 -6 130 -11 112 -10 624 -11 760 -2 94 7 153
13 240 24 25 3 62 7 82 9 21 2 50 6 65 9 15 3 48 8 73 11 47 6 133 20 185 30
17 3 39 7 50 9 61 11 95 17 136 27 26 6 55 12 65 14 11 2 19 4 19 5 0 1 9 3
20 4 11 2 34 6 50 10 17 3 39 8 50 10 16 3 347 88 390 100 6 2 24 6 40 10 17
4 37 10 45 13 8 3 21 7 29 9 12 2 47 12 71 19 3 1 25 8 50 15 25 7 47 14 50
15 3 0 39 11 80 25 41 13 80 24 87 26 13 2 139 42 163 51 8 3 20 7 27 9 13 2
245 76 313 99 25 8 54 17 65 19 11 3 54 16 95 31 41 14 85 28 96 30 12 3 38
12 58 20 20 8 36 12 36 9 0 -4 7 0 17 7 9 8 17 12 17 10 1 -2 35 7 76 19 41
12 80 23 85 25 6 1 17 5 25 8 15 6 123 36 150 42 8 2 47 13 85 24 84 24 300
80 335 87 24 5 96 21 133 30 36 9 56 13 88 18 50 8 91 16 119 21 56 11 74 14
114 19 22 3 52 8 66 11 13 2 56 7 95 11 38 3 77 7 86 10 17 5 170 14 287 18
35 1 68 -1 73 -5 7 -4 9 -48 6 -125 -3 -66 -6 -121 -7 -124 -2 -3 -2 -7 -2
-10 1 -6 -11 -92 -23 -175 -5 -32 -37 -168 -70 -295 -8 -32 -64 -179 -95 -250
-147 -337 -374 -646 -639 -870 -30 -25 -59 -49 -65 -55 -51 -46 -243 -176
-326 -221 -19 -10 -37 -21 -40 -24 -18 -19 -359 -165 -408 -175 -11 -2 -39
-10 -63 -18 -56 -19 -260 -64 -321 -71 -26 -3 -62 -8 -80 -10 -127 -18 -147
-17 -158 3 -5 11 -12 33 -14 48 -5 35 -10 56 -27 113 -7 25 -13 47 -13 50 -4
22 -106 253 -116 260 -3 3 -17 23 -30 45 -59 100 -204 263 -310 349 -115 93
-345 214 -460 242 -8 2 -39 10 -67 18 -45 12 -122 26 -173 31 -9 0 -20 3 -25
6 -14 7 -240 3 -305 -6 -55 -7 -113 -18 -160 -30 -14 -3 -38 -9 -55 -12 -16
-3 -41 -11 -55 -18 -14 -6 -46 -18 -72 -26 -27 -7 -48 -16 -48 -20 0 -4 -10
-9 -22 -13 -23 -5 -198 -103 -208 -115 -3 -3 -25 -19 -49 -36 -52 -35 -191
-170 -247 -240 -22 -27 -58 -77 -79 -110 -21 -33 -46 -72 -56 -87 -11 -15 -19
-29 -19 -32 0 -3 -12 -31 -26 -62 -55 -120 -95 -254 -108 -364 -3 -19 -6 -35
-7 -35 -7 0 -11 -245 -5 -305 7 -63 17 -135 22 -152 3 -10 8 -30 10 -45 7 -36
63 -202 77 -228 6 -11 12 -24 13 -30 6 -33 113 -203 187 -298 55 -70 171 -177
269 -249 166 -120 404 -217 598 -243 61 -8 364 -8 420 0 178 26 392 110 555
218 150 100 318 269 390 395 14 22 27 32 45 33 14 0 75 2 135 4 108 3 251 12
310 21 17 2 48 7 70 9 22 3 49 7 61 10 26 6 89 16 118 19 12 1 27 6 34 10 7 4
12 5 12 2 0 -3 10 -2 23 3 13 5 39 12 58 15 19 3 64 14 101 25 36 10 69 17 72
13 3 -3 6 -1 6 5 0 5 6 10 13 10 21 0 227 73 335 120 215 91 409 198 602 331
52 36 97 68 100 72 3 3 29 23 58 44 28 21 52 41 52 45 0 5 9 12 20 17 50 23
309 278 425 419 28 33 52 62 55 65 19 17 150 199 150 208 0 6 4 12 9 14 12 4
151 231 151 246 0 7 3 12 8 12 4 0 25 37 47 83 22 45 44 85 48 88 5 3 9 10 9
15 0 5 9 29 19 54 11 25 24 54 29 65 5 11 23 58 40 105 18 47 36 94 40 105 16
40 53 156 65 205 26 104 48 200 51 215 1 11 5 29 7 40 3 11 8 40 12 65 4 25 9
52 10 60 17 99 30 234 36 378 2 40 4 42 28 38 38 -7 59 -12 126 -30 33 -9 69
-19 80 -22 41 -11 57 -16 115 -41 56 -24 174 -84 180 -91 3 -4 17 -14 31 -22
92 -52 235 -191 305 -297 77 -116 138 -267 152 -378 8 -60 6 -230 -2 -265 -5
-23 -10 -44 -20 -88 -20 -91 -118 -252 -204 -339 -92 -90 -229 -180 -347 -224
-48 -18 -114 -38 -150 -44 -22 -4 -49 -9 -60 -12 -75 -15 -176 -19 -291 -10
l-81 6 -49 -77 c-26 -42 -52 -81 -56 -87 -4 -5 -19 -24 -33 -41 -14 -18 -25
-34 -25 -38 0 -5 -100 -141 -140 -190 -72 -89 -166 -194 -231 -260 -43 -44
-78 -81 -76 -82 12 -11 97 -53 97 -48 0 4 7 1 15 -6 8 -7 15 -9 15 -5 0 4 7 2
15 -5 8 -7 15 -10 15 -7 0 3 16 -1 35 -9 19 -8 35 -12 35 -10 0 3 17 -1 38 -7
20 -7 44 -13 52 -12 8 1 20 -2 25 -6 6 -4 30 -9 55 -13 25 -3 56 -7 70 -10
161 -30 525 -28 680 5 25 5 59 12 75 15 75 13 260 72 364 115 117 50 331 166
331 181 0 4 5 8 11 8 25 0 171 122 283 235 71 72 216 253 216 270 0 3 13 25
29 48 23 35 94 170 97 187 0 3 11 28 23 55 13 28 25 59 27 70 2 11 8 29 13 40
5 11 17 48 26 83 17 66 20 78 29 133 3 19 8 44 10 56 19 90 25 312 12 423 -4
36 -9 81 -11 100 -7 69 -53 255 -71 292 -8 15 -14 30 -13 33 4 19 -89 223
-147 325 -106 184 -295 404 -469 548 -148 121 -386 258 -568 326 -124 46 -265
91 -278 88 -3 0 -27 5 -52 13 -26 8 -47 11 -47 8 0 -3 -7 0 -15 7 -8 7 -15 10
-15 6 0 -3 -11 -1 -24 4 -13 5 -43 12 -67 15 -24 4 -47 8 -50 11 -4 2 -24 6
-44 10 -21 3 -47 8 -59 10 -67 14 -125 25 -161 29 -22 3 -51 7 -65 10 -34 7
-83 14 -155 20 -33 4 -72 8 -86 10 -150 25 -747 25 -939 0 -19 -3 -57 -7 -85
-9 -55 -5 -125 -14 -166 -21 -15 -3 -47 -7 -70 -10 -75 -10 -484 -94 -587
-121 -53 -14 -108 -28 -122 -30 -14 -2 -36 -9 -50 -14 -14 -5 -36 -11 -50 -14
-14 -2 -53 -13 -87 -24 -35 -11 -63 -18 -63 -17 0 2 -30 -7 -67 -19 -38 -13
-71 -24 -76 -24 -18 -2 -348 -104 -610 -189 -59 -19 -113 -36 -120 -37 -6 -2
-19 -6 -27 -9 -8 -3 -53 -18 -100 -32 -47 -15 -92 -29 -100 -32 -17 -7 -31
-11 -57 -17 -10 -3 -19 -5 -20 -6 -2 -2 -6 -3 -10 -4 -5 -1 -53 -16 -108 -34
-99 -31 -446 -130 -475 -136 -8 -1 -35 -8 -60 -15 -25 -7 -52 -14 -60 -16 -20
-4 -47 -10 -155 -36 -119 -28 -124 -29 -165 -33 -19 -3 -42 -7 -50 -10 -8 -3
-28 -8 -45 -11 -91 -17 -153 -28 -180 -30 -16 -1 -46 -5 -65 -8 -46 -9 -104
-17 -160 -22 -25 -3 -65 -7 -89 -10 -24 -2 -90 -7 -147 -10 -57 -3 -112 -8
-123 -10 -13 -2 -20 3 -23 19 -5 25 -1 209 6 281 3 28 8 75 11 105 3 30 7 61
10 68 3 8 8 37 11 65 4 29 9 57 12 62 4 6 8 21 10 35 1 14 5 32 9 40 3 8 6 18
5 21 -3 18 103 321 134 380 8 16 14 31 14 34 0 7 77 150 107 197 12 21 23 42
23 48 0 5 4 10 9 10 5 0 12 8 15 18 6 19 87 135 133 191 15 18 32 40 36 47 16
28 157 175 238 249 100 92 123 110 219 178 52 37 100 71 105 75 6 4 26 17 45
28 19 10 37 22 40 25 3 3 41 23 85 45 44 21 82 41 85 44 9 9 94 45 99 42 2 -2
7 0 10 5 8 12 248 100 258 95 2 -1 21 5 43 13 22 8 75 22 118 30 42 9 86 19
97 21 11 3 36 6 55 8 19 3 51 7 70 11 19 3 65 8 101 9 36 2 70 5 75 8 26 13
399 -6 500 -26 12 -2 39 -7 60 -11 57 -9 199 -43 279 -68 39 -12 72 -22 75
-22 3 -1 16 -6 30 -12 14 -6 50 -19 80 -31 146 -54 369 -176 520 -285 47 -34
90 -66 96 -72 6 -5 36 -30 65 -55 53 -44 209 -198 260 -257 46 -53 153 -196
184 -246 l30 -48 85 7 c171 15 535 8 650 -11 14 -3 48 -7 75 -11 28 -3 94 -14
149 -25 54 -10 100 -19 102 -19 10 0 -37 113 -104 245 -73 145 -100 196 -142
264 -22 34 -40 67 -40 71 0 5 -3 10 -8 12 -4 2 -31 38 -61 81 -29 43 -59 86
-66 95 -162 200 -220 267 -330 376 -72 72 -146 142 -164 156 -18 14 -43 34
-55 45 -11 11 -39 34 -61 50 -43 33 -62 48 -103 82 -15 13 -32 23 -39 23 -6 0
-13 4 -15 8 -4 11 -124 92 -137 92 -5 0 -11 4 -13 8 -11 29 -447 250 -556 283
-23 6 -42 17 -42 22 0 6 -3 8 -6 5 -3 -4 -48 9 -100 28 -52 18 -94 31 -94 29
0 -2 -15 2 -34 10 -18 8 -47 17 -62 19 -16 3 -45 10 -64 16 -74 22 -305 64
-410 75 -30 4 -71 9 -90 12 -40 6 -526 14 -531 8z m-914 -5522 c83 -23 137
-55 201 -118 93 -92 135 -184 140 -312 5 -132 -42 -249 -138 -343 -65 -65
-134 -103 -223 -123 -47 -10 -160 -16 -160 -7 0 1 -15 3 -34 6 -44 5 -168 66
-207 101 -72 65 -134 169 -152 258 -10 46 -4 210 7 210 2 0 5 11 7 25 14 77
128 215 216 262 102 54 239 71 343 41z"/>
</g>
</svg>
