<?xml version="1.0" encoding="UTF-8" standalone="no"?><!DOCTYPE svg PUBLIC "-//W3C//DTD SVG 1.1//EN" "http://www.w3.org/Graphics/SVG/1.1/DTD/svg11.dtd"><svg width="100%" height="100%" viewBox="0 0 267 194" version="1.1" xmlns="http://www.w3.org/2000/svg" xmlns:xlink="http://www.w3.org/1999/xlink" xml:space="preserve" xmlns:serif="http://www.serif.com/" style="fill-rule:evenodd;clip-rule:evenodd;stroke-linejoin:round;stroke-miterlimit:1.41421;"><rect id="Artboard1" x="0" y="0" width="266.628" height="193.056" style="fill:none;"/><clipPath id="_clip1"><rect x="0" y="0" width="266.628" height="193.056"/></clipPath><g clip-path="url(#_clip1)"><g><g><path d="M205.881,24.27c0.463,8.715 2.26,15.221 4.412,15.221c2.152,0 3.949,-6.506 4.412,-15.221c8.715,-0.463 15.221,-2.26 15.221,-4.412c0,-2.152 -6.506,-3.949 -15.221,-4.412c-0.463,-8.715 -2.26,-15.222 -4.412,-15.222c-2.152,0 -3.949,6.507 -4.412,15.222c-8.715,0.463 -15.221,2.26 -15.221,4.412c0,2.152 6.506,3.949 15.221,4.412Z" style="fill:url(#_Linear2);"/><path d="M259.194,95.869c-6.86,-10.633 -17.629,-18.384 -30.323,-21.823c-36.583,-9.911 -61.861,-3.245 -99.123,8.906c-30.354,9.833 -55.955,16.705 -85.94,8.585c-7.161,-1.941 -13.172,-6.213 -16.924,-12.03c-3.506,-5.435 -4.581,-11.588 -3.026,-17.326c1.554,-5.738 5.588,-10.507 11.358,-13.429c4.943,-2.504 10.636,-3.393 16.384,-2.665c3.003,-4.755 8.909,-13.323 15.906,-19.424c-1.203,-0.672 -3.003,-1.466 -5.554,-2.092c-12.695,-3.442 -25.903,-2.186 -37.192,3.532c-11.696,5.923 -19.95,15.876 -23.242,28.025c-3.291,12.15 -1.191,24.908 5.916,35.925c6.86,10.633 17.628,18.384 30.322,21.823c36.073,9.774 66.235,1.749 99.147,-8.912c37.098,-12.098 56.434,-16.564 85.916,-8.579c7.161,1.941 13.172,6.213 16.925,12.03c3.505,5.435 4.58,11.588 3.026,17.326c-1.555,5.738 -5.589,10.507 -11.359,13.429c-5.136,2.602 -11.082,3.464 -17.058,2.574c-2.623,4.25 -8.4,12.939 -15.417,19.411c1.201,0.693 3.056,1.538 5.74,2.196c4.692,1.272 9.456,1.902 14.167,1.901c8.031,0 15.909,-1.83 23.024,-5.433c11.697,-5.923 19.951,-15.876 23.242,-28.025c3.293,-12.15 1.192,-24.908 -5.915,-35.925Z" style="fill:url(#_Linear3);"/><path d="M102.9,170.135c-6.382,0 -11.573,-5.192 -11.573,-11.573c0,-6.382 5.191,-11.573 11.573,-11.573c6.382,0 11.573,5.191 11.573,11.573c0,6.381 -5.191,11.573 -11.573,11.573Zm91.842,-77.765c0.002,0.201 0.02,0.397 0.02,0.598c0,32.378 -25.532,58.904 -57.52,60.505c-2.47,-16.74 -16.927,-29.629 -34.342,-29.629c-19.144,0 -34.718,15.574 -34.718,34.718c0,19.144 15.574,34.718 34.718,34.718c12.504,0 23.483,-6.646 29.596,-16.59c0.526,0.004 1.083,0.006 1.683,0.006c45.44,0 82.514,-36.391 83.674,-81.556c-8.19,-1.895 -15.673,-2.782 -23.111,-2.77Zm-121.086,2.711c-0.025,-0.704 -0.061,-1.404 -0.061,-2.113c0,-33.406 27.178,-60.584 60.584,-60.584c21.616,0 40.612,11.388 51.337,28.471c4.741,-0.675 14.217,-1.316 26.577,1.447c-12.261,-31.043 -42.564,-53.063 -77.914,-53.063c-46.169,0 -83.729,37.56 -83.729,83.729c0,0.044 0.002,0.088 0.002,0.132c7.944,1.609 15.62,2.195 23.204,1.981Z" style="fill:url(#_Linear4);"/></g></g></g><defs><linearGradient id="_Linear2" x1="0" y1="0" x2="1" y2="0" gradientUnits="userSpaceOnUse" gradientTransform="matrix(8.02495e-09,178.335,-178.335,8.02495e-09,210.293,-4.24428)"><stop offset="0" style="stop-color:#9a4660;stop-opacity:1"/><stop offset="0.5" style="stop-color:#f58b68;stop-opacity:1"/><stop offset="1" style="stop-color:#fbc773;stop-opacity:1"/></linearGradient><linearGradient id="_Linear3" x1="0" y1="0" x2="1" y2="0" gradientUnits="userSpaceOnUse" gradientTransform="matrix(236.715,0,0,236.715,20.2995,93.96)"><stop offset="0" style="stop-color:#9a4660;stop-opacity:1"/><stop offset="0.5" style="stop-color:#f58b68;stop-opacity:1"/><stop offset="1" style="stop-color:#fbc773;stop-opacity:1"/></linearGradient><linearGradient id="_Linear4" x1="0" y1="0" x2="1" y2="0" gradientUnits="userSpaceOnUse" gradientTransform="matrix(-129.764,-177.571,177.571,-129.764,178.882,166.821)"><stop offset="0" style="stop-color:#9a4660;stop-opacity:1"/><stop offset="0.5" style="stop-color:#f58b68;stop-opacity:1"/><stop offset="1" style="stop-color:#fbc773;stop-opacity:1"/></linearGradient></defs></svg>